%TF.GenerationSoftware,Altium Limited,Altium Designer,24.5.2 (23)*%
G04 Layer_Color=65535*
%FSLAX45Y45*%
%MOMM*%
%TF.SameCoordinates,212D60A0-F292-481F-8A48-AB94694DD674*%
%TF.FilePolarity,Positive*%
%TF.FileFunction,Legend,Top*%
%TF.Part,Single*%
G01*
G75*
%TA.AperFunction,NonConductor*%
%ADD24C,0.12700*%
%ADD25C,0.20000*%
%ADD26C,0.30000*%
%ADD27C,0.25400*%
D24*
X5351237Y2913802D02*
G03*
X5083230Y2913802I-134004J-62487D01*
G01*
X5086163Y2777798D02*
G03*
X5354170Y2777798I134004J62487D01*
G01*
X3973100Y3048000D02*
G03*
X3973100Y3048000I-200000J0D01*
G01*
X4850602Y3378200D02*
X4968601D01*
X5648599D02*
X5766603D01*
X4968601Y3248198D02*
X5648599D01*
X4968601D02*
Y3378200D01*
Y3508202D01*
X5648599D01*
Y3378200D02*
Y3508202D01*
Y3248198D02*
Y3378200D01*
X3493201Y3801100D02*
X4533199D01*
Y4261099D01*
X3493201D02*
X4533199D01*
X3493201Y3801100D02*
Y4261099D01*
X4876002Y4013200D02*
X4994001D01*
X5673999D02*
X5792003D01*
X4994001Y3883198D02*
X5673999D01*
X4994001D02*
Y4013200D01*
Y4143202D01*
X5673999D01*
Y4013200D02*
Y4143202D01*
Y3883198D02*
Y4013200D01*
X6869801Y2691298D02*
X6899798D01*
Y4141302D01*
X6869801D02*
X6899798D01*
X6179800D02*
X6454800D01*
X6179800Y2691298D02*
Y4141302D01*
Y2691298D02*
X6454800D01*
X2648001Y4030599D02*
X3398002D01*
Y3030601D02*
Y4030599D01*
X2648001Y3030601D02*
X3398002D01*
X2648001D02*
Y4030599D01*
D25*
X3783100Y2773000D02*
G03*
X3783100Y2773000I-10000J0D01*
G01*
X3768200Y3755600D02*
G03*
X3768200Y3755600I-10000J0D01*
G01*
X3058000Y2970600D02*
G03*
X3058000Y2970600I-10000J0D01*
G01*
D26*
X6114800Y3056300D02*
G03*
X6114800Y3056300I-10000J0D01*
G01*
D27*
X4851367Y2844824D02*
Y2997175D01*
X4775192D01*
X4749800Y2971783D01*
Y2870216D01*
X4775192Y2844824D01*
X4851367D01*
X4699016Y2997175D02*
X4648233D01*
X4673624D01*
Y2844824D01*
X4699016Y2870216D01*
X4711733Y3632225D02*
Y3784575D01*
X4787908D01*
X4813300Y3759183D01*
Y3708400D01*
X4787908Y3683008D01*
X4711733D01*
X4762517D02*
X4813300Y3632225D01*
X4864084D02*
X4914867D01*
X4889476D01*
Y3784575D01*
X4864084Y3759183D01*
X3849316Y3465900D02*
X3823925Y3440508D01*
Y3389725D01*
X3849316Y3364333D01*
X3950883D01*
X3976275Y3389725D01*
Y3440508D01*
X3950883Y3465900D01*
X3976275Y3516684D02*
Y3567467D01*
Y3542076D01*
X3823925D01*
X3849316Y3516684D01*
X3489960Y4516071D02*
Y4389112D01*
X3515352Y4363720D01*
X3566135D01*
X3591527Y4389112D01*
Y4516071D01*
X3642311Y4363720D02*
X3693094D01*
X3667703D01*
Y4516071D01*
X3642311Y4490679D01*
X4721860Y4246880D02*
Y4399231D01*
X4798035D01*
X4823427Y4373839D01*
Y4323055D01*
X4798035Y4297663D01*
X4721860D01*
X4772643D02*
X4823427Y4246880D01*
X4975778D02*
X4874211D01*
X4975778Y4348447D01*
Y4373839D01*
X4950386Y4399231D01*
X4899603D01*
X4874211Y4373839D01*
X6207727Y4503371D02*
X6156943D01*
X6182335D01*
Y4376412D01*
X6156943Y4351020D01*
X6131552D01*
X6106160Y4376412D01*
X6360078Y4351020D02*
X6258511D01*
X6360078Y4452587D01*
Y4477979D01*
X6334686Y4503371D01*
X6283903D01*
X6258511Y4477979D01*
X6563212Y4503371D02*
Y4376412D01*
X6588604Y4351020D01*
X6639388D01*
X6664779Y4376412D01*
Y4503371D01*
X6817130Y4477979D02*
X6791738Y4503371D01*
X6740955D01*
X6715563Y4477979D01*
Y4452587D01*
X6740955Y4427195D01*
X6791738D01*
X6817130Y4401803D01*
Y4376412D01*
X6791738Y4351020D01*
X6740955D01*
X6715563Y4376412D01*
X6867914Y4503371D02*
Y4351020D01*
X6944089D01*
X6969481Y4376412D01*
Y4401803D01*
X6944089Y4427195D01*
X6867914D01*
X6944089D01*
X6969481Y4452587D01*
Y4477979D01*
X6944089Y4503371D01*
X6867914D01*
X7172615Y4351020D02*
Y4452587D01*
X7223399Y4503371D01*
X7274182Y4452587D01*
Y4351020D01*
Y4427195D01*
X7172615D01*
X2748247Y4287471D02*
X2697463D01*
X2722855D01*
Y4160512D01*
X2697463Y4135120D01*
X2672072D01*
X2646680Y4160512D01*
X2799031Y4135120D02*
X2849814D01*
X2824423D01*
Y4287471D01*
X2799031Y4262079D01*
X4376387Y3119079D02*
X4350995Y3144471D01*
X4300212D01*
X4274820Y3119079D01*
Y3017512D01*
X4300212Y2992120D01*
X4350995D01*
X4376387Y3017512D01*
X4528738Y2992120D02*
X4427171D01*
X4528738Y3093687D01*
Y3119079D01*
X4503346Y3144471D01*
X4452563D01*
X4427171Y3119079D01*
%TF.MD5,08a01b3f9e110bb2c94d9cc6e3812175*%
M02*
