%TF.GenerationSoftware,Altium Limited,Altium Designer,24.5.2 (23)*%
G04 Layer_Color=8388736*
%FSLAX45Y45*%
%MOMM*%
%TF.SameCoordinates,212D60A0-F292-481F-8A48-AB94694DD674*%
%TF.FilePolarity,Negative*%
%TF.FileFunction,Soldermask,Top*%
%TF.Part,Single*%
G01*
G75*
%TA.AperFunction,SMDPad,CuDef*%
%ADD28R,1.30320X1.58320*%
%TA.AperFunction,ComponentPad*%
%ADD29C,1.41120*%
%ADD30R,1.41120X1.41120*%
%ADD31C,1.40320*%
%ADD32C,1.25320*%
%ADD33R,1.25320X1.25320*%
%ADD34C,2.11320*%
%ADD35R,2.11320X2.11320*%
%ADD36C,1.63120*%
%ADD37R,1.63120X1.63120*%
%ADD38C,3.54920*%
%ADD39C,2.30320*%
%ADD40R,2.30320X2.30320*%
D28*
X4508099Y2819400D02*
D03*
X4331101D02*
D03*
D29*
X5092700Y2844800D02*
D03*
D30*
X5346700D02*
D03*
D31*
X4758599Y3378200D02*
D03*
X5858601D02*
D03*
X4783999Y4013200D02*
D03*
X5884001D02*
D03*
D32*
X3773099Y3123001D02*
D03*
D33*
Y2972999D02*
D03*
D34*
X4268201Y3975100D02*
D03*
X4013200D02*
D03*
D35*
X3758199D02*
D03*
D36*
X6354801Y3766302D02*
D03*
Y3516300D02*
D03*
Y3316300D02*
D03*
D37*
Y3066298D02*
D03*
D38*
X6654800Y4073301D02*
D03*
Y2759299D02*
D03*
D39*
X3048000Y3780602D02*
D03*
D40*
Y3280598D02*
D03*
%TF.MD5,bcda316fee8bfe9cafc58eec432d7c77*%
M02*
